<svg width="730" height="344" viewBox="0 0 730 344"  xmlns="http://www.w3.org/2000/svg">
<path fill-rule="evenodd" clip-rule="evenodd" d="M365 2.97146e-05H604.978C611.796 3.47464e-05 618.683 3.80874e-05 625.571 0.214451L603.736 70.8235C589.548 69.2604 573.053 69.6319 554.051 72.4998C505.038 79.8971 454.524 83.4998 365 83.4998V2.97146e-05ZM609.629 71.6029C651.959 78.1694 672.018 102.871 675.948 128.535C661.516 97.863 639.62 82.107 607.405 78.6488L583.059 155.794C610.261 158.274 625.573 174.293 604.978 220.345C589.703 254.5 570.823 299 557.552 344C608.066 262.5 657.579 199 700.091 146C730.571 108 738.702 72.4997 720.096 45.4998C695.653 10.029 664.075 2.2106 632.072 0.487287L609.629 71.6029ZM601.468 78.157C591.6 77.5716 580.82 78.0416 569.055 79.4998C564.309 80.0881 559.25 80.7646 553.781 81.4957C517.763 86.3115 464 93.4998 365 93.4998V188.5C425.817 188.5 444.291 183.617 482.803 173.439C494.965 170.224 509.125 166.482 527.248 162.198C544.54 158.111 562.477 155.069 577.558 155.476L601.468 78.157Z" fill="white"/>
<path fill-rule="evenodd" clip-rule="evenodd" d="M365 2.97146e-05H125.022C118.204 3.47464e-05 111.317 3.80874e-05 104.429 0.214451L126.264 70.8235C140.452 69.2604 156.947 69.6319 175.949 72.4998C224.962 79.8971 275.476 83.4998 365 83.4998V2.97146e-05ZM120.371 71.6029C78.0406 78.1694 57.9821 102.871 54.0518 128.535C68.4835 97.863 90.3797 82.107 122.595 78.6488L146.941 155.794C119.739 158.274 104.427 174.293 125.022 220.345C140.297 254.5 159.177 299 172.448 344C121.934 262.5 72.4207 199 29.9091 146C-0.570801 108 -8.7019 72.4997 9.90372 45.4998C34.3466 10.029 65.9251 2.2106 97.9276 0.487287L120.371 71.6029ZM128.532 78.157C138.4 77.5716 149.18 78.0416 160.945 79.4998C165.691 80.0881 170.75 80.7646 176.219 81.4957C212.237 86.3115 266 93.4998 365 93.4998V188.5C304.183 188.5 285.709 183.617 247.197 173.439C235.035 170.224 220.875 166.482 202.752 162.198C185.46 158.111 167.523 155.069 152.442 155.476L128.532 78.157Z" fill="white"/>
</svg>
