<!-- Generated by IcoMoon.io -->
<svg version="1.1" xmlns="http://www.w3.org/2000/svg" width="32" height="32" viewBox="0 0 32 32">
<path d="M29.344 14l-6.656 6.656h-6.125q1.406-1.375 1.891-1.875t2.078-2.094q0.656-0.625 1.438-1.406l1.281-1.281h6.094zM22.406 14h-6.094l-1.281 1.281t-1.438 1.406l-3.969 3.969h6.094q0.969-0.938 2.125-2.094l4.563-4.563zM15.438 14h-12.594q-0.063 0-0.125 0.016t-0.063 0.047 0.141 0.047 0.359 0.047q2.656 0.25 3.484 0.516t0.828 0.797q0 0.219-0.141 0.469t-0.672 0.75v0 0 0 0l-3.969 3.969h6.094l2.094-2.094q1.188-1.156 2.188-2.172t1.688-1.703z"></path>
</svg>
